<svg viewBox="0 0 800 800" xmlns="http://www.w3.org/2000/svg"><path d="M400,354.3087610613508 L400,322.30561480052484 M215.12720649971038,413.9451460614443 L214.7154630843423,381.005672831994 M400,354.3087610613508 L215.12720649971038,413.9451460614443 M400,322.30561480052484 L214.7154630843423,381.005672831994 M584.8727935002896,413.9451460614443 L585.2845369156578,381.005672831994 M584.8727935002896,413.9451460614443 L400,354.3087610613508 M585.2845369156578,381.005672831994 L400,322.30561480052484 M400,477.69438519947516 L400,443.76333856149097 M215.12720649971038,413.9451460614443 L400,477.69438519947516 M214.7154630843423,381.005672831994 L400,443.76333856149097 M400,477.69438519947516 L584.8727935002896,413.9451460614443 M400,443.76333856149097 L585.2845369156578,381.005672831994 M400,422.3675967903869 L276.4769753895615,381.005672831994 M523.5230246104386,381.005672831994 L400,422.3675967903869 M400,341.4460113554483 L523.5230246104386,381.005672831994 M276.4769753895615,381.005672831994 L400,341.4460113554483 M276.61437586187566,397.4937295096943 L400,439.18375268264424 M400,439.18375268264424 L400,422.3675967903869 M276.61437586187566,397.4937295096943 L276.4769753895615,381.005672831994 M400,439.18375268264424 L523.3856241381243,397.4937295096944 M523.3856241381243,397.4937295096944 L523.5230246104386,381.005672831994 M523.3856241381243,397.4937295096944 L400,357.6182884117369 M400,357.6182884117369 L400,341.4460113554483 M400,357.6182884117369 L276.61437586187566,397.4937295096943" stroke="black"  stroke-width="4"  fill="red"/></svg>